<svg xmlns="http://www.w3.org/2000/svg" width="64" height="64" viewBox="0 0 64 64">
  <rect width="64" height="64" fill="#2c2828"/>

  <g transform="translate(4.48 3.2) scale(0.82)">
    <path fill="#1187de" d="M 1.92 10.88 C 7.68 8.96, 14.72 9.6, 24.96 12.8 C 30.08 14.08, 33.28 16, 35.84 17.92 C 33.28 19.84, 29.44 21.12, 24.96 21.76 C 19.2 22.4, 12.16 21.12, 5.76 17.92 C 3.2 16, 1.92 13.44, 1.92 10.88 Z"/>
    <path fill="#1187de" d="M 0 17.28 C 5.76 16.64, 10.88 19.2, 17.92 23.04 C 26.24 27.52, 35.2 30.08, 42.24 33.28 C 44.8 35.2, 46.72 38.4, 46.08 42.24 C 45.44 47.36, 41.6 53.76, 35.2 56.32 C 31.36 58.24, 27.52 56.96, 24.96 53.76 C 21.76 49.92, 19.84 45.44, 17.92 39.04 C 16 32, 12.8 26.88, 8.32 23.68 C 5.12 21.12, 2.56 19.84, 0 17.28 Z"/>
    <path fill="#1187de" d="M 35.84 9.6 C 40.96 4.48, 48.64 3.2, 54.4 7.04 C 58.88 10.88, 61.44 16, 62.72 21.12 L 56.32 21.12 C 55.04 16.64, 53.12 13.44, 49.92 11.52 C 46.08 9.6, 40.96 8.96, 35.84 9.6 Z"/>
    <path fill="#1187de" d="M 26.24 9.6 C 30.72 5.76, 36.48 4.48, 40.32 7.04 C 43.52 8.96, 45.44 12.8, 45.44 17.28 C 40.96 14.72, 36.48 14.08, 32 14.08 C 29.44 12.8, 27.52 11.52, 26.24 9.6 Z"/>
    <path fill="#ff890f" d="M 40.32 35.2 C 44.8 37.12, 51.84 37.12, 60.16 35.84 L 67.2 44.8 L 57.6 53.12 C 53.12 53.12, 48 51.84, 43.52 49.28 C 39.68 47.36, 36.48 44.16, 34.56 39.68 C 36.48 37.12, 38.4 35.84, 40.32 35.2 Z"/>

    <g fill="#252222">
      <path d="M 6.4 14.08 C 10.88 12.16, 17.92 12.16, 24.96 13.44 C 30.08 14.72, 35.84 16, 42.24 16 C 48 16, 53.76 14.72, 58.88 16 C 62.72 17.28, 65.92 18.56, 68.48 20.48 C 65.28 22.4, 61.44 23.04, 56.96 23.04 C 52.48 23.04, 47.36 23.04, 42.24 21.76 C 39.04 21.12, 36.48 19.84, 35.2 17.28 C 33.92 19.84, 32.64 21.12, 28.8 21.76 C 23.04 23.04, 17.92 23.04, 13.44 23.04 C 9.6 22.4, 6.4 21.76, 3.84 20.48 C 3.84 17.92, 5.12 15.36, 6.4 14.08 Z"/>
      <circle cx="14.72" cy="15.36" r="1.92"/>
      <circle cx="52.48" cy="15.36" r="1.92"/>
      <rect x="12.8" y="15.36" width="3.84" height="10.24" rx="1.92"/>
      <rect x="50.56" y="15.36" width="3.84" height="10.24" rx="1.92"/>
      <rect x="16.64" y="17.92" width="11.52" height="6.4" rx="2.56"/>
      <rect x="39.68" y="17.92" width="11.52" height="6.4" rx="2.56"/>
      <rect x="26.88" y="11.52" width="8.96" height="11.52" rx="4.48"/>
    </g>

    <g fill="#f6f6f6">
      <ellipse cx="7.68" cy="17.92" rx="7.04" ry="2.56"/>
      <ellipse cx="21.76" cy="17.92" rx="7.04" ry="2.56"/>
      <ellipse cx="46.08" cy="17.92" rx="7.04" ry="2.56"/>
      <ellipse cx="60.16" cy="17.92" rx="7.04" ry="2.56"/>
      <circle cx="14.72" cy="15.36" r="1.28"/>
      <circle cx="52.48" cy="15.36" r="1.28"/>
      <rect x="12.16" y="16.64" width="6.4" height="11.52" rx="3.2"/>
      <rect x="49.28" y="16.64" width="6.4" height="11.52" rx="3.2"/>
      <rect x="16.64" y="19.84" width="14.08" height="7.04" rx="3.2"/>
      <rect x="37.12" y="19.84" width="14.08" height="7.04" rx="3.2"/>
      <rect x="28.16" y="17.28" width="10.24" height="13.44" rx="3.84"/>
    </g>
  </g>

  <g transform="translate(32 44.8) skewX(-10)">
    <text
      x="0"
      y="0"
      text-anchor="middle"
      font-family="Arial Black, Impact, sans-serif"
      font-size="11.52"
      font-weight="900"
      fill="#f6f6f6">DRONE</text>
    <text
      x="0"
      y="10.24"
      text-anchor="middle"
      font-family="Arial Black, Impact, sans-serif"
      font-size="11.52"
      font-weight="900"
      fill="#ff890f">BLAST</text>
  </g>
</svg>